<svg width="48" height="72" viewBox="0 0 48 72" fill="none" xmlns="http://www.w3.org/2000/svg">
<path d="M0.914158 69.2813C10.0556 68.2673 17.1245 64.6602 21.98 58.5514C21.8802 58.5832 21.7826 58.613 21.6911 58.6274C19.6956 58.9531 15.3758 56.662 14.064 48.632C12.7501 40.601 17.4946 33.1433 17.5244 33.1402C17.5326 33.1371 24.4267 38.6932 25.7375 46.7232C26.0706 48.7563 26.0881 50.5019 25.903 51.9833C28.4156 46.3173 29.3017 40.0288 29.1506 33.9785C28.982 34.2076 28.8062 34.3854 28.6325 34.4984C27.26 35.3932 23.3082 35.1035 19.708 29.5813C16.1067 24.0571 17.1841 16.9795 17.2057 16.9672C17.2098 16.9631 24.1389 18.8298 27.7391 24.352C27.9159 24.6242 28.0712 24.8872 28.2243 25.1502C27.6743 22.1801 26.928 19.399 26.0603 16.9569C26.0562 16.9435 26.0593 16.9312 26.0552 16.9179C24.5285 16.6733 22.2442 15.0809 20.9622 10.7772C19.379 5.45847 21.943 0.00924666 21.9625 2.49853e-07C21.9656 -0.00102713 27.1079 3.16638 28.6901 8.48513C29.8857 12.5022 28.9789 15.0398 27.9519 16.1936C27.9643 16.2203 27.9869 16.2398 27.9972 16.2686C28.6201 18.0233 29.1774 19.9558 29.6564 21.9952C29.8271 20.7438 30.2887 19.2726 31.1985 17.5949C34.0328 12.3738 40.1055 10.1896 40.1251 10.2019C40.1292 10.2019 41.624 16.4864 38.7907 21.7065C35.9574 26.9266 32.2975 27.4012 31.1327 26.7704C30.9127 26.6513 30.6886 26.4519 30.4799 26.1889C31.2664 31.1142 31.4936 36.4874 30.7986 41.8C31.4452 40.9616 32.2183 40.0976 33.1713 39.213C39.1381 33.6734 47.9804 33.4936 48 33.5183C48.0071 33.5244 47.1909 42.3352 41.223 47.8697C35.2583 53.4063 30.299 52.42 29.0632 51.0895C28.9275 50.9436 28.8052 50.7567 28.6911 50.5471C27.8769 52.7909 26.8653 54.9699 25.5781 57.0237C24.7506 58.3449 23.8366 59.5675 22.8538 60.712C23.8387 60.4541 24.9274 60.2476 26.1569 60.1264C34.2611 59.324 41.4071 64.5287 41.4091 64.5564C41.4112 64.5667 35.4259 71.0875 27.3238 71.8898C19.2217 72.6922 15.8723 68.9084 15.6924 67.1012C15.6811 66.9862 15.6811 66.8619 15.6883 66.7334C11.5771 69.1683 6.72059 70.7073 1.14135 71.3268C1.10229 71.331 1.06425 71.333 1.02621 71.333C0.510128 71.333 0.0639572 70.9447 0.00638962 70.4186C-0.056324 69.8526 0.349758 69.344 0.914158 69.2813Z" fill="url(#paint0_linear_4421_3988)"/>
<defs>
<linearGradient id="paint0_linear_4421_3988" x1="24" y1="0" x2="24" y2="72" gradientUnits="userSpaceOnUse">
<stop stop-color="#ACE1AF"/>
<stop offset="1" stop-color="#ACE1AF" stop-opacity="0.6"/>
</linearGradient>
</defs>
</svg>
